<svg xmlns="http://www.w3.org/2000/svg" viewBox="0 0 1200 120" width="1200" height="120" role="img" aria-labelledby="profile-footer-wave-title profile-footer-wave-desc" data-component="profile-wave" data-theme="light">
  <title id="profile-footer-wave-title">Light Edilec footer wave</title>
  <desc id="profile-footer-wave-desc">A locally stored light blue and green wave used by the profile README.</desc>
  <rect width="1200" height="120" fill="#ffffff"/>
  
  <path d="M0 44C150 20 270 76 430 52C610 24 746 34 890 56C1025 77 1095 58 1200 30V120H0Z" fill="#e8f1ff"/>
  <path d="M0 68C158 90 290 34 460 58C620 80 775 91 925 63C1055 38 1126 56 1200 78V120H0Z" fill="#e5f7ed"/>
  <path d="M0 90C160 68 310 103 480 82C664 59 770 105 930 86C1057 71 1125 92 1200 72V120H0Z" fill="#f6f8fa"/>
  <path d="M0 44C150 20 270 76 430 52C610 24 746 34 890 56C1025 77 1095 58 1200 30" fill="none" stroke="#8ab4f8" stroke-width="2" opacity=".72"/>
</svg>
